<svg xmlns="http://www.w3.org/2000/svg" viewBox="0 0 520 210" role="img" aria-labelledby="t6">
  <title id="t6">Conflits : causes multiples</title>
  <rect width="520" height="210" fill="#0d1628" rx="12"/>
  <text x="260" y="30" fill="#c9a84c" font-family="system-ui,sans-serif" font-size="13" font-weight="600" text-anchor="middle">Lecture critique des crises</text>
  <circle cx="260" cy="118" r="8" fill="#ef5350"/>
  <text x="260" y="122" fill="#fff" font-family="system-ui,sans-serif" font-size="10" font-weight="700" text-anchor="middle">!</text>
  <line x1="260" y1="110" x2="260" y2="70" stroke="#6b7a9a" stroke-width="1.5"/>
  <line x1="260" y1="126" x2="260" y2="166" stroke="#6b7a9a" stroke-width="1.5"/>
  <line x1="252" y1="118" x2="120" y2="118" stroke="#6b7a9a" stroke-width="1.5"/>
  <line x1="268" y1="118" x2="400" y2="118" stroke="#6b7a9a" stroke-width="1.5"/>
  <line x1="248" y1="112" x2="180" y2="85" stroke="#6b7a9a" stroke-width="1.5"/>
  <line x1="272" y1="112" x2="340" y2="85" stroke="#6b7a9a" stroke-width="1.5"/>
  <rect x="200" y="48" width="120" height="22" fill="rgba(255,255,255,0.06)" rx="4"/>
  <text x="260" y="64" fill="#e4eaf4" font-family="system-ui,sans-serif" font-size="10" text-anchor="middle">Politique / Etat</text>
  <rect x="90" y="102" width="100" height="22" fill="rgba(255,255,255,0.06)" rx="4"/>
  <text x="140" y="118" fill="#e4eaf4" font-family="system-ui,sans-serif" font-size="10" text-anchor="middle">Economie</text>
  <rect x="330" y="102" width="100" height="22" fill="rgba(255,255,255,0.06)" rx="4"/>
  <text x="380" y="118" fill="#e4eaf4" font-family="system-ui,sans-serif" font-size="10" text-anchor="middle">Histoire</text>
  <rect x="155" y="168" width="210" height="22" fill="rgba(201,168,76,0.15)" rx="4"/>
  <text x="260" y="184" fill="#e4eaf4" font-family="system-ui,sans-serif" font-size="10" text-anchor="middle">Identite / religion (souvent mobilisee)</text>
  <text x="260" y="200" fill="#6b7a9a" font-family="system-ui,sans-serif" font-size="9" text-anchor="middle">Multi-causalite : eviter l&#039;explication uniquement confessionnelle</text>
</svg>
